<?xml version="1.0" encoding="UTF-8" standalone="no"?>
<!-- Created with Inkscape (http://www.inkscape.org/) -->

<svg
   id="svg4754"
   sodipodi:docname="RobA-Modern-Compass-Rose.svg"
   inkscape:export-filename="C:\Images\Maps\Contests\aug contest\modern_compass.png"
   viewBox="0 0 448.56891 446.93631"
   sodipodi:version="0.32"
   inkscape:export-xdpi="90"
   version="1.0"
   inkscape:output_extension="org.inkscape.output.svg.inkscape"
   inkscape:export-ydpi="90"
   inkscape:version="1.1 (c68e22c387, 2021-05-23)"
   width="448.56891"
   height="446.93631"
   xmlns:inkscape="http://www.inkscape.org/namespaces/inkscape"
   xmlns:sodipodi="http://sodipodi.sourceforge.net/DTD/sodipodi-0.dtd"
   xmlns:xlink="http://www.w3.org/1999/xlink"
   xmlns="http://www.w3.org/2000/svg"
   xmlns:svg="http://www.w3.org/2000/svg"
   xmlns:rdf="http://www.w3.org/1999/02/22-rdf-syntax-ns#"
   xmlns:cc="http://creativecommons.org/ns#"
   xmlns:dc="http://purl.org/dc/elements/1.1/">
  <defs
     id="defs4756">
    <linearGradient
       id="linearGradient7029">
      <stop
         id="stop7031"
         style="stop-color:#414141"
         offset="0" />
      <stop
         id="stop7033"
         style="stop-color:#f3f3f3"
         offset="1" />
    </linearGradient>
    <filter
       id="filter7084"
       inkscape:collect="always"
       x="-0.024063685"
       y="-0.024063685"
       width="1.0481274"
       height="1.0481274">
      <feGaussianBlur
         id="feGaussianBlur7086"
         stdDeviation="2.8141222"
         inkscape:collect="always" />
    </filter>
    <filter
       id="filter7483"
       inkscape:collect="always"
       x="-0.025434578"
       y="-0.025434578"
       width="1.0508692"
       height="1.0508692">
      <feGaussianBlur
         id="feGaussianBlur7485"
         stdDeviation="2.7531846"
         inkscape:collect="always" />
    </filter>
    <filter
       id="filter7941"
       inkscape:collect="always"
       x="-0.011932341"
       y="-0.012068677"
       width="1.0238647"
       height="1.0241374">
      <feGaussianBlur
         id="feGaussianBlur7943"
         stdDeviation="1.9888339"
         inkscape:collect="always" />
    </filter>
    <linearGradient
       id="linearGradient9749"
       y2="453.17001"
       xlink:href="#linearGradient7029"
       gradientUnits="userSpaceOnUse"
       x2="442"
       y1="172.87"
       x1="164.3"
       inkscape:collect="always" />
    <linearGradient
       id="linearGradient9751"
       y2="190.92"
       xlink:href="#linearGradient7029"
       gradientUnits="userSpaceOnUse"
       x2="186.67999"
       y1="446.42999"
       x1="415.64999"
       inkscape:collect="always" />
  </defs>
  <sodipodi:namedview
     id="base"
     inkscape:zoom="1.1087434"
     height="470px"
     borderopacity="1.0"
     inkscape:current-layer="g2763"
     inkscape:cx="153.77769"
     inkscape:cy="225.93144"
     inkscape:object-paths="true"
     width="470px"
     inkscape:guide-bbox="true"
     showguides="true"
     bordercolor="#666666"
     inkscape:window-x="-9"
     guidetolerance="10"
     objecttolerance="10"
     inkscape:object-nodes="true"
     inkscape:window-y="-9"
     inkscape:window-width="1920"
     inkscape:pageopacity="0"
     inkscape:pageshadow="2"
     pagecolor="#ffffff"
     gridtolerance="10"
     inkscape:document-units="px"
     inkscape:window-height="1051"
     showborder="true"
     inkscape:pagecheckerboard="0"
     showgrid="false"
     fit-margin-top="0"
     fit-margin-left="0"
     fit-margin-right="0"
     fit-margin-bottom="0"
     inkscape:window-maximized="1" />
  <g
     id="layer1"
     inkscape:label="Layer 1"
     inkscape:groupmode="layer"
     transform="translate(-28.374998,-28.43816)">
    <g
       id="g2763">
      <path
         id="path9156"
         style="opacity:0.2;fill:none;stroke:#000000;stroke-width:1px"
         d="m 417.33,253.9 c 0,89.79 -72.88,162.66 -162.67,162.66 -89.79,0 -162.67,-72.87 -162.67,-162.66 0.004,-89.8 72.88,-162.67 162.67,-162.67 89.79,0 162.67,72.87 162.67,162.67 z" />
      <path
         id="path9160"
         style="opacity:0.2;fill:none;stroke:#000000;stroke-width:1px"
         d="m 254.66,91.23 v 11.29" />
      <path
         id="path9162"
         style="opacity:0.2;fill:none;stroke:#000000;stroke-width:1px"
         d="m 254.66,404.17 v 11.29" />
      <path
         id="path9166"
         style="opacity:0.2;fill:none;stroke:#000000;stroke-width:1px"
         d="M 296.62,96.754 293.7,107.66" />
      <path
         id="path9168"
         style="opacity:0.2;fill:none;stroke:#000000;stroke-width:1px"
         d="m 215.62,399.03 -2.92,10.91" />
      <path
         id="path9172"
         style="opacity:0.2;fill:none;stroke:#000000;stroke-width:1px"
         d="m 335.72,112.95 -5.65,9.78" />
      <path
         id="path9174"
         style="opacity:0.2;fill:none;stroke:#000000;stroke-width:1px"
         d="m 179.25,383.96 -5.65,9.78" />
      <path
         id="path9178"
         style="opacity:0.2;fill:none;stroke:#000000;stroke-width:1px"
         d="m 369.29,138.71 -7.98,7.99" />
      <path
         id="path9180"
         style="opacity:0.2;fill:none;stroke:#000000;stroke-width:1px"
         d="m 148.01,359.99 -7.98,7.99" />
      <path
         id="path9184"
         style="opacity:0.2;fill:none;stroke:#000000;stroke-width:1px"
         d="m 395.06,172.29 -9.78,5.64" />
      <path
         id="path9186"
         style="opacity:0.2;fill:none;stroke:#000000;stroke-width:1px"
         d="m 124.04,328.76 -9.77,5.64" />
      <path
         id="path9190"
         style="opacity:0.2;fill:none;stroke:#000000;stroke-width:1px"
         d="m 411.25,211.39 -10.9,2.92" />
      <path
         id="path9192"
         style="opacity:0.2;fill:none;stroke:#000000;stroke-width:1px"
         d="M 108.98,292.38 98.07,295.3" />
      <path
         id="path9196"
         style="opacity:0.2;fill:none;stroke:#000000;stroke-width:1px"
         d="m 416.78,253.35 h -11.3" />
      <path
         id="path9198"
         style="opacity:0.2;fill:none;stroke:#000000;stroke-width:1px"
         d="M 103.84,253.35 H 92.546" />
      <path
         id="path9202"
         style="opacity:0.2;fill:none;stroke:#000000;stroke-width:1px"
         d="m 411.25,295.3 -10.9,-2.92" />
      <path
         id="path9204"
         style="opacity:0.2;fill:none;stroke:#000000;stroke-width:1px"
         d="M 108.98,214.31 98.07,211.39" />
      <path
         id="path9208"
         style="opacity:0.2;fill:none;stroke:#000000;stroke-width:1px"
         d="m 395.06,334.4 -9.78,-5.64" />
      <path
         id="path9210"
         style="opacity:0.2;fill:none;stroke:#000000;stroke-width:1px"
         d="m 124.04,177.93 -9.77,-5.64" />
      <path
         id="path9214"
         style="opacity:0.2;fill:none;stroke:#000000;stroke-width:1px"
         d="m 369.29,367.98 -7.98,-7.99" />
      <path
         id="path9216"
         style="opacity:0.2;fill:none;stroke:#000000;stroke-width:1px"
         d="m 148.01,146.7 -7.98,-7.99" />
      <path
         id="path9220"
         style="opacity:0.2;fill:none;stroke:#000000;stroke-width:1px"
         d="m 335.72,393.74 -5.65,-9.78" />
      <path
         id="path9222"
         style="opacity:0.2;fill:none;stroke:#000000;stroke-width:1px"
         d="m 179.25,122.73 -5.65,-9.78" />
      <path
         id="path9226"
         style="opacity:0.2;fill:none;stroke:#000000;stroke-width:1px"
         d="M 296.62,409.94 293.7,399.03" />
      <path
         id="path9228"
         style="opacity:0.2;fill:none;stroke:#000000;stroke-width:1px"
         d="M 215.62,107.66 212.7,96.754" />
      <path
         id="path7088"
         style="fill:none;stroke:#ffffff;stroke-width:5.2375;filter:url(#filter7483)"
         sodipodi:type="inkscape:offset"
         d="m 310.71875,133.9375 c -100.1204,0 -181.375,81.2546 -181.375,181.375 0,100.12041 81.2546,181.37502 181.375,181.375 100.12041,0 181.37501,-81.25459 181.375,-181.375 0,-100.1204 -81.25459,-181.375 -181.375,-181.375 z"
         inkscape:original="M 310.71875 133.9375 C 210.59835 133.9375 129.34375 215.1921 129.34375 315.3125 C 129.34375 415.43291 210.59835 496.68752 310.71875 496.6875 C 410.83916 496.6875 492.09376 415.43291 492.09375 315.3125 C 492.09375 215.1921 410.83916 133.9375 310.71875 133.9375 z "
         transform="matrix(1.1414,0,0,1.1498,-99.677,-110.66)"
         inkscape:radius="0" />
      <path
         id="path7066"
         style="fill:none;stroke:#000000;stroke-width:4.3407;filter:url(#filter7084)"
         sodipodi:type="inkscape:offset"
         d="m 310.71875,129.88281 c -102.31464,0 -185.42969,83.11505 -185.42969,185.42969 0,102.31465 83.11505,185.42971 185.42969,185.42969 102.31465,0 185.4297,-83.11504 185.42969,-185.42969 0,-102.31464 -83.11504,-185.42969 -185.42969,-185.42969 z"
         inkscape:original="M 310.71875 133.9375 C 210.59835 133.9375 129.34375 215.1921 129.34375 315.3125 C 129.34375 415.43291 210.59835 496.68752 310.71875 496.6875 C 410.83916 496.6875 492.09376 415.43291 492.09375 315.3125 C 492.09375 215.1921 410.83916 133.9375 310.71875 133.9375 z "
         transform="matrix(1.154,0,0,1.1498,-105.91,-110.64)"
         inkscape:radius="4.0555477" />
      <path
         id="path7046"
         style="fill:none;stroke:url(#linearGradient9749);stroke-width:4.3407"
         sodipodi:type="inkscape:offset"
         d="m 310.71875,133.9375 c -100.1204,0 -181.375,81.2546 -181.375,181.375 0,100.12041 81.2546,181.37502 181.375,181.375 100.12041,0 181.37501,-81.25459 181.375,-181.375 0,-100.1204 -81.25459,-181.375 -181.375,-181.375 z"
         inkscape:original="M 310.71875 133.9375 C 210.59835 133.9375 129.34375 215.1921 129.34375 315.3125 C 129.34375 415.43291 210.59835 496.68752 310.71875 496.6875 C 410.83916 496.6875 492.09376 415.43291 492.09375 315.3125 C 492.09375 215.1921 410.83916 133.9375 310.71875 133.9375 z "
         transform="matrix(1.154,0,0,1.1498,-105.91,-110.64)"
         inkscape:radius="0" />
      <path
         id="rect5214"
         style="color:#000000;fill:#000000;fill-rule:evenodd"
         d="m 245.29,116.45 c -2.53,0.25 -4.5,2.4 -4.5,5 v 2.03 c -14.9,1.36 -29.07,5.25 -42.07,11.25 l -1,-1.75 c -1.38,-2.4 -4.47,-3.2 -6.87,-1.81 l -11.88,6.84 c -2.4,1.38 -3.23,4.44 -1.84,6.84 l 1.03,1.78 c -11.91,8.45 -22.34,18.88 -30.78,30.79 l -1.78,-1.04 c -2.4,-1.38 -5.43,-0.55 -6.81,1.85 l -6.88,11.87 c -1.38,2.4 -0.55,5.46 1.84,6.85 l 1.75,1 c -6,13 -9.89,27.19 -11.25,42.09 h -2.03 c -2.77,0 -5,2.23 -5,5 v 13.72 c 0,2.77 2.23,5 5,5 h 2.03 c 1.37,14.89 5.26,29.07 11.25,42.06 l -1.78,1.03 c -2.4,1.39 -3.16,4.45 -1.78,6.85 l 6.85,11.87 c 1.38,2.4 4.41,3.2 6.81,1.81 l 1.78,-1.03 c 8.45,11.93 18.89,22.36 30.81,30.82 l -1.03,1.78 c -1.38,2.4 -0.59,5.42 1.81,6.81 l 11.88,6.87 c 2.4,1.39 5.46,0.59 6.84,-1.81 l 1.03,-1.78 c 13,6 27.17,9.89 42.07,11.25 v 2.06 c 0,2.77 2.23,5 5,5 h 13.75 c 2.77,0 4.96,-2.23 4.96,-5 v -2.06 c 14.9,-1.36 29.07,-5.25 42.07,-11.25 l 1.03,1.78 c 1.38,2.4 4.44,3.2 6.84,1.81 l 11.91,-6.87 c 2.4,-1.39 3.16,-4.41 1.78,-6.81 l -1.03,-1.78 c 11.93,-8.46 22.39,-18.89 30.84,-30.82 l 1.78,1.03 c 2.4,1.39 5.43,0.59 6.82,-1.81 l 6.87,-11.87 c 1.39,-2.4 0.56,-5.46 -1.84,-6.85 l -1.75,-1.03 c 5.99,-12.99 9.89,-27.17 11.25,-42.06 h 2.03 c 2.77,0 5,-2.23 5,-5 v -13.72 c 0,-2.77 -2.23,-5 -5,-5 h -2.03 c -1.36,-14.89 -5.26,-29.06 -11.25,-42.06 l 1.78,-1.03 c 2.4,-1.39 3.16,-4.45 1.78,-6.85 l -6.84,-11.87 c -1.39,-2.4 -4.45,-3.23 -6.85,-1.85 l -1.78,1.04 c -8.45,-11.91 -18.87,-22.34 -30.78,-30.79 l 1.03,-1.78 c 1.39,-2.4 0.56,-5.46 -1.84,-6.84 l -11.85,-6.84 c -2.4,-1.39 -5.49,-0.59 -6.87,1.81 l -1,1.75 c -13,-6 -27.17,-9.89 -42.06,-11.25 v -2.03 c 0,-2.77 -2.27,-5 -5.04,-5 h -13.71 c -0.18,0 -0.34,-0.02 -0.5,0 z m 7.37,27.53 c 59.57,0 107.91,48.34 107.91,107.9 0,59.57 -48.34,107.91 -107.91,107.91 -59.56,0 -107.91,-48.34 -107.91,-107.91 0,-59.56 48.35,-107.9 107.91,-107.9 z" />
      <path
         id="path6020"
         style="fill:none;stroke:#000000;stroke-width:1px"
         d="m 415.33,251.9 c 0,89.79 -72.88,162.66 -162.67,162.66 -89.79,0 -162.67,-72.87 -162.67,-162.66 0.004,-89.8 72.88,-162.67 162.67,-162.67 89.79,0 162.67,72.87 162.67,162.67 z" />
      <path
         id="path6420"
         style="fill:none;stroke:#000000;stroke-width:1px"
         d="m 252.66,89.23 v 11.29" />
      <path
         id="path6422"
         style="fill:none;stroke:#000000;stroke-width:1px"
         d="m 252.66,402.17 v 11.29" />
      <path
         id="path6426"
         style="fill:none;stroke:#000000;stroke-width:1px"
         d="M 294.62,94.754 291.7,105.66" />
      <path
         id="path6428"
         style="fill:none;stroke:#000000;stroke-width:1px"
         d="m 213.62,397.03 -2.92,10.91" />
      <path
         id="path6432"
         style="fill:none;stroke:#000000;stroke-width:1px"
         d="m 333.72,110.95 -5.65,9.78" />
      <path
         id="path6434"
         style="fill:none;stroke:#000000;stroke-width:1px"
         d="m 177.25,381.96 -5.65,9.78" />
      <path
         id="path6438"
         style="fill:none;stroke:#000000;stroke-width:1px"
         d="m 367.29,136.71 -7.98,7.99" />
      <path
         id="path6440"
         style="fill:none;stroke:#000000;stroke-width:1px"
         d="m 146.01,357.99 -7.98,7.99" />
      <path
         id="path6444"
         style="fill:none;stroke:#000000;stroke-width:1px"
         d="m 393.06,170.29 -9.78,5.64" />
      <path
         id="path6446"
         style="fill:none;stroke:#000000;stroke-width:1px"
         d="m 122.04,326.76 -9.77,5.64" />
      <path
         id="path6450"
         style="fill:none;stroke:#000000;stroke-width:1px"
         d="m 409.25,209.39 -10.9,2.92" />
      <path
         id="path6452"
         style="fill:none;stroke:#000000;stroke-width:1px"
         d="M 106.98,290.38 96.07,293.3" />
      <path
         id="path6456"
         style="fill:none;stroke:#000000;stroke-width:1px"
         d="m 414.78,251.35 h -11.3" />
      <path
         id="path6458"
         style="fill:none;stroke:#000000;stroke-width:1px"
         d="M 101.84,251.35 H 90.546" />
      <path
         id="path6462"
         style="fill:none;stroke:#000000;stroke-width:1px"
         d="m 409.25,293.3 -10.9,-2.92" />
      <path
         id="path6464"
         style="fill:none;stroke:#000000;stroke-width:1px"
         d="M 106.98,212.31 96.07,209.39" />
      <path
         id="path6468"
         style="fill:none;stroke:#000000;stroke-width:1px"
         d="m 393.06,332.4 -9.78,-5.64" />
      <path
         id="path6470"
         style="fill:none;stroke:#000000;stroke-width:1px"
         d="m 122.04,175.93 -9.77,-5.64" />
      <path
         id="path6474"
         style="fill:none;stroke:#000000;stroke-width:1px"
         d="m 367.29,365.98 -7.98,-7.99" />
      <path
         id="path6476"
         style="fill:none;stroke:#000000;stroke-width:1px"
         d="m 146.01,144.7 -7.98,-7.99" />
      <path
         id="path6480"
         style="fill:none;stroke:#000000;stroke-width:1px"
         d="m 333.72,391.74 -5.65,-9.78" />
      <path
         id="path6482"
         style="fill:none;stroke:#000000;stroke-width:1px"
         d="m 177.25,120.73 -5.65,-9.78" />
      <path
         id="path6404"
         style="fill:none;stroke:#000000;stroke-width:1px"
         d="M 294.62,407.94 291.7,397.03" />
      <path
         id="path6412"
         style="fill:none;stroke:#000000;stroke-width:1px"
         d="M 213.62,105.66 210.7,94.754" />
      <path
         id="flowRoot6547"
         style="fill:#ff0000"
         transform="matrix(0.82274,0,0,0.88986,170.51,61.272)"
         d="m 92.008,71.153 h 5.039 l 6.363,12 v -12 h 4.28 v 17.496 h -5.04 l -6.365,-12 v 12 h -4.277 z" />
      <path
         id="flowRoot6563"
         style="fill:#cccccc"
         transform="matrix(0.82274,0,0,0.88986,170.52,300.22)"
         d="m 105.59,71.704 v 3.703 c -0.96,-0.43 -1.9,-0.754 -2.81,-0.973 -0.92,-0.218 -1.78,-0.328 -2.59,-0.328 -1.081,0 -1.878,0.149 -2.393,0.446 -0.516,0.296 -0.774,0.757 -0.774,1.382 0,0.469 0.174,0.834 0.522,1.096 0.348,0.262 0.978,0.486 1.893,0.674 l 1.922,0.387 c 1.94,0.39 3.33,0.984 4.15,1.781 0.82,0.797 1.23,1.93 1.23,3.398 0,1.93 -0.57,3.366 -1.72,4.307 -1.14,0.941 -2.89,1.412 -5.243,1.412 -1.109,0 -2.222,-0.105 -3.339,-0.316 -1.118,-0.211 -2.235,-0.524 -3.352,-0.938 v -3.808 c 1.117,0.593 2.197,1.041 3.24,1.341 1.043,0.301 2.049,0.452 3.018,0.452 0.986,0 1.736,-0.165 2.266,-0.493 0.52,-0.328 0.78,-0.797 0.78,-1.406 0,-0.547 -0.18,-0.969 -0.53,-1.266 -0.36,-0.296 -1.07,-0.562 -2.13,-0.796 l -1.746,-0.387 c -1.75,-0.375 -3.029,-0.973 -3.838,-1.793 -0.808,-0.82 -1.212,-1.926 -1.212,-3.316 0,-1.743 0.562,-3.082 1.687,-4.02 1.125,-0.937 2.742,-1.406 4.852,-1.406 0.957,0 1.947,0.072 2.967,0.217 1.01,0.144 2.06,0.361 3.15,0.65 z" />
      <path
         id="flowRoot6571"
         style="fill:#cccccc"
         transform="matrix(0.82274,0,0,0.88986,288.93,180.8)"
         d="m 93.859,71.153 h 12.181 v 3.41 h -7.669 v 3.258 h 7.209 v 3.41 h -7.209 v 4.008 h 7.919 v 3.41 H 93.859 Z" />
      <path
         id="flowRoot6579"
         style="fill:#cccccc"
         transform="matrix(0.82274,0,0,0.88986,50.686,180.8)"
         d="m 87.332,71.153 h 4.324 l 3.024,12.715 3,-12.715 h 4.35 l 3,12.715 3.02,-12.715 h 4.29 l -4.13,17.496 h -5.2 L 99.836,75.348 96.695,88.649 h -5.203 z" />
      <path
         id="path6632"
         inkscape:transform-center-x="0.5"
         style="fill:none;stroke:#ffffff;stroke-width:1px"
         inkscape:transform-center-y="-116.71504"
         d="m 329.25,175.1 12.17,-12.17" />
      <path
         id="path6634"
         inkscape:transform-center-x="0.5"
         style="fill:none;stroke:#ffffff;stroke-width:1px"
         inkscape:transform-center-y="-116.71504"
         d="m 329.96,327.99 12.17,12.17" />
      <path
         id="path6636"
         inkscape:transform-center-x="0.5"
         style="fill:none;stroke:#ffffff;stroke-width:1px"
         inkscape:transform-center-y="-116.71504"
         d="M 177.07,328.7 164.9,340.86" />
      <path
         id="path6638"
         inkscape:transform-center-x="0.5"
         style="fill:none;stroke:#ffffff;stroke-width:1px"
         inkscape:transform-center-y="-116.71504"
         d="M 176.36,175.8 164.19,163.64" />
      <path
         id="path7054"
         style="fill:none;stroke:url(#linearGradient9751);stroke-width:4.3407"
         sodipodi:type="inkscape:offset"
         d="m 310.71875,129.88281 c -102.31464,0 -185.42969,83.11505 -185.42969,185.42969 0,102.31465 83.11505,185.42971 185.42969,185.42969 102.31465,0 185.4297,-83.11504 185.42969,-185.42969 0,-102.31464 -83.11504,-185.42969 -185.42969,-185.42969 z"
         inkscape:original="M 310.71875 133.9375 C 210.59835 133.9375 129.34375 215.1921 129.34375 315.3125 C 129.34375 415.43291 210.59835 496.68752 310.71875 496.6875 C 410.83916 496.6875 492.09376 415.43291 492.09375 315.3125 C 492.09375 215.1921 410.83916 133.9375 310.71875 133.9375 z "
         transform="matrix(1.154,0,0,1.1498,-105.91,-110.64)"
         inkscape:radius="4.0555477" />
      <path
         id="path7544"
         style="fill:#ffffff;filter:url(#filter7941)"
         d="m 265.19,55.147 c -3.03,-0.275 -4.95,4.318 -5.28,5.062 -3.2,-8.136 -16.95,-5.948 -17.5,2.813 -1.01,6.676 -1.43,17.239 6.69,19.562 6.13,1.857 12.09,-3.136 12.03,-9.375 0.63,-1.951 -0.25,-7.027 0.44,-7.187 3.75,5.053 11.44,-0.201 9.75,-5.719 -0.42,-2.899 -3.07,-5.525 -6.13,-5.156 z m -13.56,8.5 c 0.75,3.349 0.76,7.262 0,10.531 -0.7,-3.304 -0.81,-7.404 0,-10.531 z M 57.38,238.077 c -6.125,-0.47 -9.593,5.63 -9.438,11.07 3.296,0.67 11.166,-0.32 5.75,3.22 -3.813,3.26 -6.01,7.99 -6.156,13 h 20.625 c 0.965,-5.54 -0.072,-10.85 -4.938,-9.57 2.34,-1.96 4.444,-4.75 4.782,-7.97 3.666,-0.07 8.568,-1.09 4.95,3.25 -2.099,4.46 -2.716,9.42 -3.325,14.29 4.495,-0.23 11.138,1.85 9.968,-4.6 0.568,-4.8 2.485,-10.3 5.532,-13.59 -0.96,6.61 -0.543,17.03 7.75,18.44 6.066,1.48 11.69,-3.45 11.72,-9.5 0.49,-2.3 0.01,-6.62 0.28,-7.5 3.52,5.33 11.82,0.65 10.31,-5.16 -0.27,-5.81 -9.07,-7.49 -11.03,-1.78 -0.59,4.39 -2.27,-2.85 -5.187,-2.88 -4.319,-1.72 -10.152,-0.59 -12.437,3.75 1.536,-7.56 -9.324,-2.74 -14,-4.09 -5.676,-3.1 -5.094,4.9 -7.125,1.91 -2.052,-2.08 -5.251,-2.4 -8.031,-2.29 z m 351.37,0 c -8.82,0.07 -11.39,12.95 -5.12,17.97 -4.7,-0.87 -3.16,3.04 -1.81,5.63 3.76,6.76 15.36,4.7 17,-2.78 1.44,8.56 15.31,9.34 17.56,0.9 1.15,-3.57 1.22,-7.8 0.91,-11.28 3.23,5.31 11.34,1.02 10.15,-4.62 0.18,-5.6 -8.11,-8.18 -10.53,-2.78 -0.76,1.48 -0.61,3.31 -1.59,0.81 -3.74,-6.37 -15.17,-4.6 -16.53,2.84 -1.3,-4.45 -5.42,-7.19 -10.04,-6.69 z m 0.88,7.97 c 1.58,0.79 -0.02,5.95 -0.44,2.25 0.05,-0.71 -0.13,-1.73 0.44,-2.25 z m -314.81,0.35 c 0.807,3.01 1.065,8.39 -0.094,10.62 -0.701,-3.3 -0.82,-7.4 0.094,-10.62 z m -36.594,0.03 c 1.292,0.93 -1.644,3.61 -0.375,0.69 0.096,-0.24 0.132,-0.61 0.375,-0.69 z m 369.5,0.22 c 0.7,3.04 0.85,7.92 -0.09,10.25 -0.55,-3.22 -0.73,-7.34 0.09,-10.25 z m -142.97,176.15 c -3.38,-0.38 -5.44,4.82 -5.65,5.72 -2.89,-8.42 -17.15,-7.22 -18.85,1.06 -1.67,-10.02 -20.27,-8.79 -19.5,1.91 -0.06,2.44 2.56,4.11 0.16,6.03 -3.03,6.01 2.11,13.73 8.91,12.94 4.5,0.89 9.7,-2.26 10.84,-5.91 3.08,9.02 18.63,7.43 19.22,-2.37 0.88,-2.65 0.24,-8.15 0.44,-9.28 3.14,5.64 12.21,1.86 11.03,-4.28 -0.17,-3.31 -3.22,-6.23 -6.6,-5.82 z m -55.46,1.1 c -0.92,3.82 -5.94,4.25 -7.35,6.65 -0.11,4.57 -1.19,10.67 4.6,6.75 4.08,-0.67 -0.81,11.23 2.46,12.78 8.44,2.16 10.16,-2.38 8.82,-10 -0.68,-5.41 1.35,-13.54 -1,-17.28 -2.09,0.67 -6.69,-1.36 -7.53,1.1 z m 21.18,6.78 c 1.63,1.34 -1.33,1.79 0,0 z m 19.38,0.37 c 1.11,2.9 1.37,8.57 -0.03,10.94 -0.99,-3.34 -1.06,-7.69 0.03,-10.94 z m -10.38,3.72 c 0.07,3.35 -1.08,-0.2 0,0 z m -9.03,4.91 c 2.93,2.21 -2.15,4.99 0,0 z" />
      <path
         id="flowRoot7503"
         style="fill:#000000"
         d="m 243.9,68.895 c 0,-4.355 0.65,-7.401 1.95,-9.141 1.29,-1.74 3.26,-2.609 5.92,-2.609 1.27,0 2.32,0.19 3.13,0.57 0.82,0.38 1.49,0.875 2.01,1.484 0.51,0.61 0.92,1.25 1.22,1.922 0.29,0.672 0.53,1.456 0.71,2.352 0.36,1.708 0.53,3.489 0.53,5.343 0,4.157 -0.58,7.198 -1.74,9.125 -1.16,1.928 -3.16,2.891 -6.01,2.891 -1.59,0 -2.88,-0.307 -3.86,-0.922 -0.98,-0.614 -1.78,-1.515 -2.41,-2.703 -0.46,-0.844 -0.81,-1.997 -1.07,-3.461 -0.25,-1.463 -0.38,-3.081 -0.38,-4.851 z m 5.22,0.015 c 0,2.917 0.21,4.909 0.64,5.977 0.42,1.067 1.04,1.601 1.85,1.601 0.54,0 1,-0.226 1.39,-0.679 0.39,-0.453 0.68,-1.17 0.87,-2.149 0.18,-0.979 0.27,-2.505 0.27,-4.578 0,-3.042 -0.21,-5.086 -0.64,-6.133 -0.42,-1.047 -1.06,-1.57 -1.91,-1.57 -0.87,0 -1.5,0.534 -1.89,1.602 -0.39,1.067 -0.58,3.044 -0.58,5.929 z m 20.3,-7.312 c 0,1.229 -0.36,2.281 -1.08,3.156 -0.73,0.875 -1.6,1.312 -2.63,1.312 -1.01,0 -1.88,-0.437 -2.61,-1.312 -0.72,-0.875 -1.08,-1.927 -1.08,-3.156 0,-1.24 0.36,-2.295 1.08,-3.164 0.73,-0.87 1.6,-1.305 2.61,-1.305 1.03,0 1.9,0.435 2.63,1.305 0.72,0.869 1.08,1.924 1.08,3.164 z m -2.4,-0.016 c 0,-0.437 -0.13,-0.812 -0.38,-1.125 -0.26,-0.312 -0.56,-0.469 -0.93,-0.469 -0.36,0 -0.67,0.157 -0.93,0.469 -0.25,0.313 -0.38,0.688 -0.38,1.125 0,0.438 0.13,0.81 0.38,1.117 0.26,0.308 0.57,0.461 0.93,0.461 0.37,0 0.67,-0.153 0.93,-0.461 0.25,-0.307 0.38,-0.679 0.38,-1.117 z m -31.2,363.21 v 23.29 h -5.83 v -15.26 c -0.94,0.79 -1.85,1.43 -2.73,1.92 -0.89,0.49 -1.99,0.96 -3.32,1.41 v -5.22 c 1.96,-0.7 3.48,-1.54 4.57,-2.52 1.08,-0.98 1.93,-2.19 2.54,-3.62 z m 9.75,10.98 c -0.9,-0.53 -1.56,-1.12 -1.98,-1.78 -0.56,-0.9 -0.85,-1.93 -0.85,-3.09 0,-1.92 0.82,-3.49 2.45,-4.71 1.27,-0.93 2.95,-1.4 5.05,-1.4 2.77,0 4.81,0.58 6.14,1.75 1.32,1.16 1.98,2.63 1.98,4.4 0,1.03 -0.26,2 -0.79,2.89 -0.39,0.67 -1.02,1.32 -1.86,1.94 1.12,0.6 1.95,1.38 2.51,2.36 0.55,0.98 0.82,2.06 0.82,3.25 0,1.15 -0.23,2.22 -0.71,3.21 -0.48,1 -1.06,1.77 -1.75,2.31 -0.7,0.54 -1.56,0.94 -2.59,1.19 -1.03,0.26 -2.13,0.38 -3.3,0.38 -2.2,0 -3.88,-0.28 -5.03,-0.85 -1.16,-0.58 -2.05,-1.42 -2.65,-2.54 -0.6,-1.11 -0.9,-2.36 -0.9,-3.73 0,-1.34 0.28,-2.48 0.85,-3.41 0.56,-0.94 1.43,-1.66 2.61,-2.17 z m 2.59,-4.5 c 0,0.79 0.22,1.43 0.67,1.92 0.45,0.48 1.04,0.72 1.79,0.72 0.66,0 1.2,-0.24 1.62,-0.72 0.43,-0.48 0.64,-1.1 0.64,-1.86 0,-0.79 -0.22,-1.43 -0.67,-1.93 -0.44,-0.49 -1,-0.74 -1.69,-0.74 -0.7,0 -1.27,0.24 -1.71,0.73 -0.43,0.48 -0.65,1.11 -0.65,1.88 z m -0.31,9.86 c 0,1.01 0.27,1.84 0.83,2.48 0.56,0.64 1.19,0.96 1.91,0.96 0.69,0 1.3,-0.33 1.85,-0.98 0.55,-0.65 0.82,-1.47 0.82,-2.47 0,-1.01 -0.27,-1.84 -0.83,-2.49 -0.55,-0.64 -1.19,-0.97 -1.91,-0.97 -0.72,0 -1.34,0.31 -1.87,0.94 -0.54,0.62 -0.8,1.47 -0.8,2.53 z m 13.6,-4.59 c 0,-4.36 0.71,-7.4 2.12,-9.14 1.42,-1.74 3.58,-2.61 6.49,-2.61 1.39,0 2.54,0.19 3.43,0.57 0.9,0.38 1.63,0.87 2.19,1.48 0.57,0.61 1.01,1.25 1.34,1.92 0.32,0.68 0.58,1.46 0.78,2.36 0.39,1.7 0.58,3.49 0.58,5.34 0,4.16 -0.63,7.2 -1.91,9.12 -1.27,1.93 -3.46,2.89 -6.57,2.89 -1.74,0 -3.15,-0.3 -4.23,-0.92 -1.07,-0.61 -1.95,-1.51 -2.64,-2.7 -0.5,-0.84 -0.89,-2 -1.17,-3.46 -0.27,-1.46 -0.41,-3.08 -0.41,-4.85 z m 5.71,0.01 c 0,2.92 0.23,4.91 0.7,5.98 0.46,1.07 1.14,1.6 2.03,1.6 0.58,0 1.09,-0.23 1.52,-0.68 0.42,-0.45 0.74,-1.17 0.94,-2.15 0.21,-0.98 0.31,-2.5 0.31,-4.58 0,-3.04 -0.24,-5.08 -0.7,-6.13 -0.47,-1.04 -1.17,-1.57 -2.1,-1.57 -0.95,0 -1.64,0.54 -2.07,1.6 -0.42,1.07 -0.63,3.05 -0.63,5.93 z m 22.22,-7.31 c 0,1.23 -0.39,2.28 -1.19,3.16 -0.79,0.87 -1.74,1.31 -2.87,1.31 -1.11,0 -2.06,-0.44 -2.85,-1.31 -0.79,-0.88 -1.19,-1.93 -1.19,-3.16 0,-1.24 0.4,-2.29 1.19,-3.16 0.79,-0.87 1.74,-1.31 2.85,-1.31 1.13,0 2.08,0.44 2.87,1.31 0.8,0.87 1.19,1.92 1.19,3.16 z m -2.63,-0.02 c 0,-0.43 -0.14,-0.81 -0.42,-1.12 -0.27,-0.31 -0.61,-0.47 -1.01,-0.47 -0.39,0 -0.73,0.16 -1.01,0.47 -0.29,0.31 -0.43,0.69 -0.43,1.12 0,0.44 0.14,0.81 0.43,1.12 0.28,0.31 0.62,0.46 1.01,0.46 0.4,0 0.74,-0.15 1.01,-0.46 0.28,-0.31 0.42,-0.68 0.42,-1.12 z m 115.85,-171 5.22,-0.8 c 0.14,0.89 0.37,1.51 0.69,1.88 0.33,0.36 0.73,0.54 1.2,0.54 0.85,0 1.5,-0.51 1.98,-1.54 0.34,-0.77 0.6,-2.37 0.77,-4.83 -0.63,0.78 -1.27,1.35 -1.93,1.72 -0.67,0.36 -1.43,0.54 -2.3,0.54 -1.69,0 -3.12,-0.73 -4.28,-2.18 -1.17,-1.46 -1.75,-3.31 -1.75,-5.54 0,-1.52 0.3,-2.9 0.89,-4.15 0.59,-1.25 1.41,-2.2 2.45,-2.84 1.04,-0.64 2.34,-0.96 3.92,-0.96 1.89,0 3.4,0.39 4.55,1.18 1.14,0.79 2.05,2.04 2.73,3.75 0.69,1.71 1.03,3.98 1.03,6.79 0,4.13 -0.72,7.16 -2.15,9.09 -1.44,1.92 -3.43,2.88 -5.97,2.88 -1.51,0 -2.69,-0.21 -3.56,-0.63 -0.87,-0.43 -1.59,-1.04 -2.16,-1.86 -0.58,-0.81 -1.02,-1.82 -1.33,-3.04 z m 9.67,-10.22 c 0,-1.24 -0.26,-2.21 -0.78,-2.92 -0.51,-0.7 -1.14,-1.05 -1.88,-1.05 -0.7,0 -1.27,0.32 -1.73,0.95 -0.46,0.64 -0.69,1.59 -0.69,2.86 0,1.28 0.24,2.26 0.71,2.94 0.48,0.68 1.07,1.02 1.79,1.02 0.74,0 1.35,-0.33 1.84,-0.99 0.49,-0.66 0.74,-1.59 0.74,-2.81 z m 7.73,3.81 c 0,-4.35 0.65,-7.4 1.94,-9.14 1.29,-1.74 3.26,-2.61 5.91,-2.61 1.27,0 2.31,0.19 3.13,0.57 0.82,0.38 1.48,0.88 2,1.49 0.51,0.6 0.92,1.25 1.22,1.92 0.29,0.67 0.53,1.45 0.71,2.35 0.35,1.71 0.53,3.49 0.53,5.34 0,4.16 -0.58,7.2 -1.74,9.13 -1.16,1.92 -3.16,2.89 -5.99,2.89 -1.59,0 -2.88,-0.31 -3.86,-0.92 -0.98,-0.62 -1.78,-1.52 -2.41,-2.71 -0.45,-0.84 -0.81,-1.99 -1.06,-3.46 -0.25,-1.46 -0.38,-3.08 -0.38,-4.85 z m 5.21,0.02 c 0,2.91 0.21,4.91 0.63,5.97 0.43,1.07 1.05,1.6 1.85,1.6 0.54,0 1,-0.22 1.39,-0.68 0.39,-0.45 0.68,-1.16 0.86,-2.14 0.19,-0.98 0.28,-2.51 0.28,-4.58 0,-3.04 -0.21,-5.09 -0.64,-6.13 -0.42,-1.05 -1.06,-1.57 -1.91,-1.57 -0.87,0 -1.5,0.53 -1.88,1.6 -0.39,1.06 -0.58,3.04 -0.58,5.93 z m 20.26,-7.32 c 0,1.23 -0.36,2.29 -1.08,3.16 -0.73,0.88 -1.6,1.31 -2.62,1.31 -1.02,0 -1.88,-0.43 -2.6,-1.31 -0.73,-0.87 -1.09,-1.93 -1.09,-3.16 0,-1.24 0.36,-2.29 1.09,-3.16 0.72,-0.87 1.58,-1.3 2.6,-1.3 1.02,0 1.89,0.43 2.62,1.3 0.72,0.87 1.08,1.92 1.08,3.16 z m -2.4,-0.01 c 0,-0.44 -0.13,-0.81 -0.38,-1.13 -0.25,-0.31 -0.56,-0.47 -0.92,-0.47 -0.36,0 -0.67,0.16 -0.93,0.47 -0.26,0.32 -0.39,0.69 -0.39,1.13 0,0.44 0.13,0.81 0.39,1.12 0.26,0.3 0.57,0.46 0.93,0.46 0.36,0 0.67,-0.16 0.92,-0.46 0.25,-0.31 0.38,-0.68 0.38,-1.12 z m -376.9,18.86 H 49.828 c 0.187,-1.89 0.755,-3.66 1.705,-5.32 0.949,-1.66 2.73,-3.63 5.343,-5.89 1.596,-1.38 2.616,-2.43 3.062,-3.15 0.446,-0.72 0.669,-1.4 0.669,-2.05 0,-0.7 -0.221,-1.29 -0.662,-1.79 -0.442,-0.49 -0.997,-0.74 -1.665,-0.74 -0.696,0 -1.264,0.26 -1.705,0.77 -0.442,0.51 -0.738,1.41 -0.89,2.7 l -5.456,-0.52 c 0.214,-1.79 0.606,-3.19 1.177,-4.19 0.57,-1.01 1.375,-1.78 2.414,-2.31 1.038,-0.54 2.476,-0.81 4.313,-0.81 1.917,0 3.408,0.26 4.473,0.77 1.066,0.51 1.904,1.29 2.514,2.35 0.611,1.06 0.916,2.24 0.916,3.55 0,1.4 -0.349,2.73 -1.049,4 -0.7,1.27 -1.973,2.67 -3.818,4.19 -1.097,0.89 -1.83,1.51 -2.2,1.86 -0.37,0.35 -0.805,0.82 -1.304,1.39 h 8.505 z m 2.448,-22.91 h 15.901 v 4.3 c -1.382,1.46 -2.537,3.03 -3.464,4.73 -1.123,2.07 -2.01,4.36 -2.661,6.89 -0.517,1.97 -0.865,4.3 -1.043,6.99 h -5.43 c 0.428,-3.74 1.101,-6.88 2.019,-9.41 0.919,-2.53 2.372,-5.24 4.36,-8.12 h -9.682 z m 18.201,11.36 c 0,-4.35 0.671,-7.4 2.013,-9.14 1.342,-1.74 3.385,-2.61 6.132,-2.61 1.319,0 2.402,0.19 3.249,0.57 0.847,0.38 1.538,0.88 2.074,1.49 0.53,0.6 0.96,1.25 1.26,1.92 0.31,0.67 0.56,1.45 0.75,2.35 0.36,1.71 0.54,3.49 0.54,5.34 0,4.16 -0.6,7.2 -1.8,9.13 -1.205,1.92 -3.278,2.89 -6.221,2.89 -1.649,0 -2.982,-0.31 -3.998,-0.92 -1.017,-0.62 -1.85,-1.52 -2.501,-2.71 -0.473,-0.84 -0.84,-1.99 -1.103,-3.46 -0.263,-1.46 -0.395,-3.08 -0.395,-4.85 z m 5.403,0.02 c 0,2.91 0.221,4.91 0.662,5.97 0.441,1.07 1.081,1.6 1.919,1.6 0.553,0 1.032,-0.22 1.438,-0.68 0.405,-0.45 0.704,-1.16 0.896,-2.14 0.191,-0.98 0.287,-2.51 0.287,-4.58 0,-3.04 -0.22,-5.09 -0.662,-6.13 -0.441,-1.05 -1.103,-1.57 -1.986,-1.57 -0.9,0 -1.551,0.53 -1.952,1.6 -0.401,1.06 -0.602,3.04 -0.602,5.93 z m 21.025,-7.32 c 0,1.23 -0.38,2.29 -1.13,3.16 -0.74,0.88 -1.65,1.31 -2.71,1.31 -1.05,0 -1.95,-0.43 -2.7,-1.31 -0.75,-0.87 -1.12,-1.93 -1.12,-3.16 0,-1.24 0.37,-2.29 1.12,-3.16 0.75,-0.87 1.65,-1.3 2.7,-1.3 1.06,0 1.97,0.43 2.71,1.3 0.75,0.87 1.13,1.92 1.13,3.16 z m -2.49,-0.01 c 0,-0.44 -0.13,-0.81 -0.39,-1.13 -0.27,-0.31 -0.59,-0.47 -0.96,-0.47 -0.37,0 -0.7,0.16 -0.96,0.47 -0.27,0.32 -0.4,0.69 -0.4,1.13 0,0.44 0.13,0.81 0.4,1.12 0.26,0.3 0.59,0.46 0.96,0.46 0.37,0 0.69,-0.16 0.96,-0.46 0.26,-0.31 0.39,-0.68 0.39,-1.12 z" />
    </g>
  </g>
  <metadata
     id="metadata99">
    <rdf:RDF>
      <cc:Work>
        <dc:format>image/svg+xml</dc:format>
        <dc:type
           rdf:resource="http://purl.org/dc/dcmitype/StillImage" />
        <cc:license
           rdf:resource="http://creativecommons.org/publicdomain/zero/1.0/" />
        <dc:publisher>
          <cc:Agent
             rdf:about="http://openclipart.org/">
            <dc:title>Openclipart</dc:title>
          </cc:Agent>
        </dc:publisher>
        <dc:title>Modern Compass Rose</dc:title>
        <dc:date>2007-12-07T17:01:32</dc:date>
        <dc:description>Modern Compass Rose</dc:description>
        <dc:source>https://openclipart.org/detail/9550/modern-compass-rose-by-roba</dc:source>
        <dc:creator>
          <cc:Agent>
            <dc:title>RobA</dc:title>
          </cc:Agent>
        </dc:creator>
        <dc:subject>
          <rdf:Bag>
            <rdf:li>cartography</rdf:li>
            <rdf:li>compass</rdf:li>
            <rdf:li>how i did it</rdf:li>
            <rdf:li>map</rdf:li>
            <rdf:li>rose</rdf:li>
          </rdf:Bag>
        </dc:subject>
      </cc:Work>
      <cc:License
         rdf:about="http://creativecommons.org/publicdomain/zero/1.0/">
        <cc:permits
           rdf:resource="http://creativecommons.org/ns#Reproduction" />
        <cc:permits
           rdf:resource="http://creativecommons.org/ns#Distribution" />
        <cc:permits
           rdf:resource="http://creativecommons.org/ns#DerivativeWorks" />
      </cc:License>
    </rdf:RDF>
  </metadata>
</svg>
